<?xml version="1.0" encoding="utf-8"?>
<!-- Generator: Adobe Illustrator 16.0.0, SVG Export Plug-In . SVG Version: 6.00 Build 0)  -->
<!DOCTYPE svg PUBLIC "-//W3C//DTD SVG 1.1//EN" "http://www.w3.org/Graphics/SVG/1.1/DTD/svg11.dtd">
<svg version="1.1" id="Version_1.0" xmlns="http://www.w3.org/2000/svg" xmlns:xlink="http://www.w3.org/1999/xlink" x="0px"
	 y="0px" width="612px" height="792px" viewBox="0 0 612 792" enable-background="new 0 0 612 792" xml:space="preserve">

<g id="main">
	<g transform="scale(1.2) translate(47.5 30)">
		<path fill="#FFFFFF" stroke="#000000" stroke-width="3" d="M164.624,311.551c-3.399,0.851-25.261-2.08-26.508,0
			c-2.935,4.892,16.201,9.47,15.684,15.149c-0.517,5.684-27.992,2.906-28.462,5.962c-0.799,5.191,25.847,4.111,27.897,13.411
			c2.492,11.305,26.379-0.03,28.598,0.636c9.194,2.76,8.526,12.399,18.673,15.168c10.848,2.959,22.78-9.124,35.387-8.103
			c2.677,0.218,24.106,5.394,25.63,0.751C272.803,344.75,241.841,336.92,238,331.6c-3.938-5.452,22.993,0.71,23.806-0.419
			c0.295-0.409-4.103-5.211-12.818-7.014"/>
		</svg>
