<?xml version="1.0" encoding="utf-8"?>
<!-- Generator: Adobe Illustrator 16.0.0, SVG Export Plug-In . SVG Version: 6.00 Build 0)  -->
<!DOCTYPE svg PUBLIC "-//W3C//DTD SVG 1.1//EN" "http://www.w3.org/Graphics/SVG/1.1/DTD/svg11.dtd">
<svg version="1.1" id="Version_1.0" xmlns="http://www.w3.org/2000/svg" xmlns:xlink="http://www.w3.org/1999/xlink" x="0px"
	 y="0px" width="612px" height="792px" viewBox="0 0 612 792" enable-background="new 0 0 612 792" xml:space="preserve">
<g id="main">
	
		<line fill="none" stroke="#000000" stroke-width="5" stroke-linejoin="round" stroke-miterlimit="10" x1="305.49" y1="289.209" x2="305.49" y2="503.669"/>
	
		<line fill="none" stroke="#000000" stroke-width="5" stroke-linejoin="round" stroke-miterlimit="10" x1="412.541" y1="396.426" x2="198.247" y2="396.426"/>
	<g>
		<polygon fill="#FFFFFF" points="283.916,373.44 283.916,419.439 326.848,419.439 326.848,373.44 		"/>
		<path d="M305.382,387.729c-4.729,0-8.587,3.914-8.587,8.696c0,4.808,3.858,8.692,8.587,8.692c4.755,0,8.612-3.885,8.612-8.692
			C313.995,391.643,310.137,387.729,305.382,387.729"/>
		
			<path fill="none" stroke="#000000" stroke-width="2.7171" stroke-linecap="round" stroke-linejoin="round" stroke-miterlimit="10" d="
			M305.382,387.729c-4.729,0-8.587,3.914-8.587,8.696c0,4.808,3.858,8.692,8.587,8.692c4.755,0,8.612-3.885,8.612-8.692
			C313.995,391.643,310.137,387.729,305.382,387.729"/>
	</g>
</g>
</svg>
