<?xml version="1.0" encoding="utf-8"?>
<!-- Generator: Adobe Illustrator 16.0.0, SVG Export Plug-In . SVG Version: 6.00 Build 0)  -->
<!DOCTYPE svg PUBLIC "-//W3C//DTD SVG 1.1//EN" "http://www.w3.org/Graphics/SVG/1.1/DTD/svg11.dtd">
<svg version="1.1" id="Version_1.0" xmlns="http://www.w3.org/2000/svg" xmlns:xlink="http://www.w3.org/1999/xlink" x="0px"
	 y="0px" width="612px" height="792px" viewBox="0 0 612 792" enable-background="new 0 0 612 792" xml:space="preserve">
<g id="main">
	<ellipse stroke="#000000" cx="279.868" cy="497.563" rx="20" ry="20"/>
	<path fill="none" stroke="#000000" stroke-width="15" d="M280.668,267.163c-5.724,57.244-3.417,223.809-99.2,248"/>
	<path fill="none" stroke="#000000" stroke-width="15" d="M280.139,266.763c5.725,57.243,3.418,223.808,99.202,248"/>
	<path fill="none" stroke="#000000" stroke-width="10" d="M210.091,504.767c49.012-27.532,68.266-64.359,69.377-112.134"/>
	<path fill="none" stroke="#000000" stroke-width="10" d="M350.78,504.767c-49.014-27.532-68.268-64.359-69.378-112.134"/>
	
		<rect x="287.296" y="357.219" transform="matrix(0.9357 -0.3527 0.3527 0.9357 -127.4272 130.2959)" stroke="#000000" stroke-width="3" width="13.012" height="115.147"/>
	
		<rect x="261.272" y="357.214" transform="matrix(-0.9357 -0.3528 0.3528 -0.9357 372.0027 897.3878)" stroke="#000000" stroke-width="3" width="13.014" height="115.16"/>
</g>
</svg>
