<?xml version="1.0" encoding="utf-8"?>
<!-- Generator: Adobe Illustrator 16.0.0, SVG Export Plug-In . SVG Version: 6.00 Build 0)  -->
<!DOCTYPE svg PUBLIC "-//W3C//DTD SVG 1.1//EN" "http://www.w3.org/Graphics/SVG/1.1/DTD/svg11.dtd">
<svg version="1.1" id="Version_1.0" xmlns="http://www.w3.org/2000/svg" xmlns:xlink="http://www.w3.org/1999/xlink" x="0px"
	 y="0px" width="400px" height="400px" viewBox="0 0 400 400" enable-background="new 0 0 400 400" xml:space="preserve">
<g id="main" transform="translate(-120 -60) scale(1.25 1.25)">
	<line fill="none" stroke="#000000" stroke-width="2" x1="390.75" y1="99.86" x2="390.2" y2="310.4"/>
	<line fill="none" stroke="#000000" stroke-width="2" x1="121.2" y1="200.472" x2="391.2" y2="200.472"/>
	<line fill="none" stroke="#000000" stroke-width="2" x1="389.2" y1="278.4" x2="119.2" y2="278.4"/>
	<line fill="none" stroke="#000000" stroke-width="2" x1="390.802" y1="126.556" x2="121.802" y2="126.556"/>
	<line fill="none" stroke="#000000" stroke-width="2" x1="389.2" y1="277.4" x2="346.2" y2="262.4"/>
	<line fill="none" stroke="#000000" stroke-width="2" x1="389.428" y1="279.073" x2="347.2" y2="291.4"/>
	<line fill="none" stroke="#000000" stroke-width="2" x1="389.2" y1="199.4" x2="345.2" y2="181.4"/>
	<line fill="none" stroke="#000000" stroke-width="2" x1="389.2" y1="201.4" x2="347.2" y2="215.4"/>
	<line fill="none" stroke="#000000" stroke-width="2" x1="389.2" y1="126.4" x2="346.2" y2="107.4"/>
	<line fill="none" stroke="#000000" stroke-width="2" x1="390.2" y1="126.4" x2="346.2" y2="143.4"/>
	
		<g transform="translate(0 1) translate(0 1) translate(0 1) translate(0 1) translate(0 1) translate(0 1) translate(0 1) translate(0 1) translate(0 1) translate(-1 0) translate(-1 0) translate(-1 0) translate(-1 0) translate(-1 0) translate(-1 0) translate(-1 0) translate(0 1)">
		<rect x="246.2" y="176.4" fill="#FFFFFF" stroke="#FFFFFF" width="28" height="28"/>
		<text transform="matrix(0.8 0 0 0.8 250.4898 200.4)" font-family="sans-serif" font-size="35">C</text>
	</g>
</g>
</svg>
