<?xml version="1.0" encoding="utf-8"?>
<!-- Generator: Adobe Illustrator 16.0.0, SVG Export Plug-In . SVG Version: 6.00 Build 0)  -->
<!DOCTYPE svg PUBLIC "-//W3C//DTD SVG 1.1//EN" "http://www.w3.org/Graphics/SVG/1.1/DTD/svg11.dtd">
<svg version="1.1" id="Version_1.0" xmlns="http://www.w3.org/2000/svg" xmlns:xlink="http://www.w3.org/1999/xlink" x="0px"
	 y="0px" width="400px" height="400px" viewBox="0 0 400 400" enable-background="new 0 0 400 400" xml:space="preserve">
<g id="main" transform="translate(-240 -200) scale(1.75 1.75)">
	<line fill="none" stroke="#000000" stroke-width="2" x1="171.051" y1="190.953" x2="181.666" y2="183.149"/>
	<line fill="none" stroke="#000000" stroke-width="2" x1="184.346" y1="181.149" x2="200.613" y2="169.217"/>
	<line fill="none" stroke="#000000" stroke-width="2" x1="206.886" y1="164.709" x2="221.353" y2="154.109"/>
	<line fill="none" stroke="#000000" stroke-width="2" x1="229.746" y1="147.843" x2="244.479" y2="137.109"/>
	<line fill="none" stroke="#000000" stroke-width="2" x1="251.746" y1="131.683" x2="260.345" y2="125.416"/>
	<line fill="none" stroke="#000000" stroke-width="2" x1="262.051" y1="125.953" x2="270.613" y2="133.883"/>
	<line fill="none" stroke="#000000" stroke-width="2" x1="275.513" y1="138.323" x2="290.113" y2="151.789"/>
	<line fill="none" stroke="#000000" stroke-width="2" x1="295.946" y1="157.189" x2="309.079" y2="169.256"/>
	<line fill="none" stroke="#000000" stroke-width="2" x1="315.051" y1="174.953" x2="324.046" y2="183.203"/>
	<line fill="none" stroke="#000000" stroke-width="2" x1="327.513" y1="186.336" x2="337.446" y2="195.536"/>
	<path fill="none" stroke="#000000" stroke-width="2" d="M170.696,239.147l14.055-12.194c11.523-9.997,27.93,5.202,40.286-4
		c18.801-14.001,39.499-33.391,64.459-21c19.523,9.693,70.811,63.515,54.79,95c-4.831,9.496-10.98,8.376-18.532,11
		c-62.328,21.66-49.328-9.211-94.27-12c-17.941-1.113-71.878,29.815-74.933-10c-1.259-16.412,4.059-37.339,14.145-46.778"/>
	<circle fill="#FFFFFF" stroke="#000000" stroke-width="2" cx="202.051" cy="256.953" r="13"/>
	<circle fill="#FFFFFF" stroke="#000000" stroke-width="2" cx="252.051" cy="256.953" r="13"/>
	<circle fill="#FFFFFF" stroke="#000000" stroke-width="2" cx="298.051" cy="256.953" r="13"/>
</g>
</svg>
