<?xml version="1.0" encoding="utf-8"?>
<!-- Generator: Adobe Illustrator 16.0.0, SVG Export Plug-In . SVG Version: 6.00 Build 0)  -->
<!DOCTYPE svg PUBLIC "-//W3C//DTD SVG 1.1//EN" "http://www.w3.org/Graphics/SVG/1.1/DTD/svg11.dtd">
<svg version="1.1" id="Version_1.0" xmlns="http://www.w3.org/2000/svg" xmlns:xlink="http://www.w3.org/1999/xlink" x="0px"
	 y="0px" width="400px" height="400px" viewBox="0 0 400 400" enable-background="new 0 0 400 400" xml:space="preserve">
<g id="main">
	
		<line fill="none" stroke="#000000" stroke-width="4.93" stroke-linejoin="round" stroke-miterlimit="10" x1="53.968" y1="19.881" x2="53.968" y2="102.712"/>
	
		<line fill="none" stroke="#000000" stroke-width="4.93" stroke-linejoin="round" stroke-miterlimit="10" x1="136.799" y1="19.881" x2="136.799" y2="102.712"/>
	
		<line fill="none" stroke="#000000" stroke-width="4.93" stroke-linejoin="round" stroke-miterlimit="10" x1="53.968" y1="21.881" x2="136.799" y2="21.881"/>
	
		<line fill="none" stroke="#000000" stroke-width="4.93" stroke-linejoin="round" stroke-miterlimit="10" x1="53.968" y1="101.712" x2="134.863" y2="194.293"/>
	
		<line fill="none" stroke="#000000" stroke-width="4.93" stroke-linejoin="round" stroke-miterlimit="10" x1="95.438" y1="149.11" x2="136.799" y2="101.712"/>
	<g>
		<line fill="none" stroke="#000000" stroke-width="3.3174" x1="295.373" y1="367.167" x2="332.353" y2="289.833"/>
		<line fill="none" stroke="#000000" stroke-width="3.3174" x1="283.057" y1="370.917" x2="336.107" y2="261.5"/>
		<line fill="none" stroke="#000000" stroke-width="3.3174" x1="268.801" y1="372.018" x2="337.703" y2="236.167"/>
		<line fill="none" stroke="#000000" stroke-width="3.3174" x1="257.156" y1="370.354" x2="335.375" y2="215.259"/>
		<line fill="none" stroke="#000000" stroke-width="3.3174" x1="246.492" y1="367.167" x2="329.906" y2="202.094"/>
		<line fill="none" stroke="#000000" stroke-width="3.3174" x1="232.176" y1="364.165" x2="323.688" y2="189.26"/>
		<line fill="none" stroke="#000000" stroke-width="3.3174" x1="221.495" y1="360.854" x2="316.831" y2="181.227"/>
		<line fill="none" stroke="#000000" stroke-width="3.3174" x1="211.695" y1="357.025" x2="307.267" y2="172.055"/>
		<line fill="none" stroke="#000000" stroke-width="3.3174" x1="202.68" y1="353.188" x2="298.816" y2="165.086"/>
		<line fill="none" stroke="#000000" stroke-width="3.3174" x1="194.168" y1="347.167" x2="290.307" y2="158.806"/>
		<line fill="none" stroke="#000000" stroke-width="3.3174" x1="184.514" y1="343.174" x2="281.049" y2="153.165"/>
		<line fill="none" stroke="#000000" stroke-width="3.3174" x1="173.641" y1="336.833" x2="271.221" y2="146.654"/>
		<line fill="none" stroke="#000000" stroke-width="3.3174" x1="166.595" y1="327.234" x2="262.27" y2="141.691"/>
		<line fill="none" stroke="#000000" stroke-width="3.3174" x1="156.711" y1="317.143" x2="250.915" y2="135.997"/>
		<line fill="none" stroke="#000000" stroke-width="3.3174" x1="149.373" y1="306.121" x2="239.279" y2="130.83"/>
		<line fill="none" stroke="#000000" stroke-width="3.3174" x1="140.529" y1="294.93" x2="227.74" y2="126.414"/>
		<line fill="none" stroke="#000000" stroke-width="3.3174" x1="132.24" y1="281.886" x2="213.841" y2="122.165"/>
		<line fill="none" stroke="#000000" stroke-width="3.3174" x1="122.969" y1="268.201" x2="200.265" y2="119.666"/>
		<line fill="none" stroke="#000000" stroke-width="3.3174" x1="118.832" y1="252.986" x2="187.169" y2="118.929"/>
	</g>
	
		<path fill="none" stroke="#000000" stroke-width="4.93" stroke-linecap="round" stroke-linejoin="round" stroke-miterlimit="10" d="
		M185.582,119.42c-34.695,5.743-54.304,88.204-63.351,115.049c-9.066,26.848-3.028,26.848,9.047,46.014
		c12.057,19.187,34.695,55.615,63.351,69.037c28.657,13.426,85.988,36.434,108.605,11.504
		c22.64-24.926,46.771-120.812,27.164-161.081C310.789,159.691,220.275,113.658,185.582,119.42"/>
</g>
</svg>
