<?xml version="1.0" encoding="utf-8"?>
<!-- Generator: Adobe Illustrator 16.0.0, SVG Export Plug-In . SVG Version: 6.00 Build 0)  -->
<!DOCTYPE svg PUBLIC "-//W3C//DTD SVG 1.1//EN" "http://www.w3.org/Graphics/SVG/1.1/DTD/svg11.dtd">
<svg version="1.1" id="Version_1.0" xmlns="http://www.w3.org/2000/svg" xmlns:xlink="http://www.w3.org/1999/xlink" x="0px"
	 y="0px" width="400px" height="400px" viewBox="0 0 400 400" enable-background="new 0 0 400 400" xml:space="preserve">
<g id="main">
	<polygon fill="none" stroke="#000000" stroke-width="5" points="324.497,121.064 342.472,121.064 342.472,138.297 386.32,157.15 
		342.472,176.159 342.472,214.021 386.32,233.007 342.472,250 342.472,275.979 324.497,275.979 306.518,322.018 288.387,275.979 
		252.434,275.979 234.455,322.018 216.346,275.979 180.391,275.979 162.261,322.018 144.283,275.979 108.174,275.979 
		90.197,322.018 72.088,275.979 54.111,275.979 54.111,256.991 10.264,237.982 54.111,218.977 54.111,180.982 10.109,162.127 
		54.111,143.273 54.111,121.064 72.088,121.064 88.992,78.497 108.174,121.064 144.283,121.064 161.123,78.351 180.391,121.064 
		216.346,121.064 234.455,75.463 252.434,121.064 288.389,121.064 307.277,77.391 	"/>
</g>
</svg>
