<?xml version="1.0" encoding="utf-8"?>
<!-- Generator: Adobe Illustrator 16.0.0, SVG Export Plug-In . SVG Version: 6.00 Build 0)  -->
<!DOCTYPE svg PUBLIC "-//W3C//DTD SVG 1.1//EN" "http://www.w3.org/Graphics/SVG/1.1/DTD/svg11.dtd">
<svg version="1.1" id="Version_1.0" xmlns="http://www.w3.org/2000/svg" xmlns:xlink="http://www.w3.org/1999/xlink" x="0px"
	 y="0px" width="400px" height="400px" viewBox="0 0 400 400" enable-background="new 0 0 400 400" xml:space="preserve">
<g id="main">
	<path fill="none" stroke="#000000" stroke-width="5" d="M58.458,118.806c36.54-25.074,85.383-40.393,139.042-40.393
		c52.309,0,100.04,14.558,136.259,38.518"/>
	<path fill="none" stroke="#000000" stroke-width="5" d="M87.954,170.328c31.49-15.993,68.67-26.822,108.914-26.822
		c40.028,0,74.278,11.927,104.384,28.264"/>
	<path fill="none" stroke="#000000" stroke-width="5" d="M75.073,257.781c19.896-35.602,64.979-60.447,117.409-60.447
		c26.075,0,50.333,6.146,70.577,16.702"/>
	<path fill="none" stroke="#000000" stroke-width="5" d="M124.643,292.805c14.534-21.408,40.683-35.688,70.524-35.688
		c14.635,0,28.382,3.435,40.306,9.461"/>
	<line fill="none" stroke="#000000" stroke-width="5" x1="335.25" y1="115.5" x2="300.25" y2="173.75"/>
	<line fill="none" stroke="#000000" stroke-width="5" x1="57.5" y1="116.931" x2="117.088" y2="216.68"/>
	<polyline fill="none" stroke="#000000" stroke-width="5" points="287.682,164.867 194.817,347.326 73.75,256.098 	"/>
	<g>
		<text transform="matrix(0.7681 -0.6404 0.6404 0.7681 146.7617 296.7676)" font-family="sans-serif" font-size="12.001">RG</text>
		<text transform="matrix(0.7681 -0.6404 0.6404 0.7681 153.3418 312.3486)" font-family="sans-serif" font-size="12.001">ALT</text>
	</g>
	<g>
		<text transform="matrix(0.8552 -0.5184 0.5184 0.8552 106.8154 246.6738)" font-family="sans-serif" font-size="12.0008">RG</text>
		<text transform="matrix(0.8552 -0.5184 0.5184 0.8552 111.189 262.1074)" font-family="sans-serif" font-size="12.0008">ALT</text>
	</g>
	<g>
		<text transform="matrix(1 0 0 1 204 100.835)" font-family="sans-serif" font-size="12">RG</text>
		<text transform="matrix(1 0 0 1 199.2393 114.9775)" font-family="sans-serif" font-size="12">ALT</text>
	</g>
	<g>
		<text transform="matrix(1 0 0 1 204.7607 169.3691)" font-family="sans-serif" font-size="12">RG</text>
		<text transform="matrix(1 0 0 1 200 183.5107)" font-family="sans-serif" font-size="12">ALT</text>
	</g>
	<g>
		<g>
			
				<line fill="none" stroke="#000000" stroke-width="5" stroke-linejoin="bevel" stroke-miterlimit="10" x1="195.108" y1="346.5" x2="195.108" y2="49"/>
			<polygon points="203.861,51.553 195.136,36.44 186.411,51.553 			"/>
		</g>
	</g>
</g>
</svg>
