<?xml version="1.0" encoding="utf-8"?>
<!-- Generator: Adobe Illustrator 16.0.0, SVG Export Plug-In . SVG Version: 6.00 Build 0)  -->
<!DOCTYPE svg PUBLIC "-//W3C//DTD SVG 1.1//EN" "http://www.w3.org/Graphics/SVG/1.1/DTD/svg11.dtd">
<svg version="1.1" id="Version_1.0" xmlns="http://www.w3.org/2000/svg" xmlns:xlink="http://www.w3.org/1999/xlink" x="0px"
	 y="0px" width="400px" height="400px" viewBox="0 0 400 400" enable-background="new 0 0 400 400" xml:space="preserve">
<g id="main">
	<path fill="none" stroke="#000000" stroke-width="5.0439" stroke-linejoin="round" stroke-miterlimit="10" d="M292.006,111.958
		c-36.895,12.43-73.788,24.86-102.974,53.253c-29.168,28.393-60.055,97.628-72.069,117.145"/>
	<path fill="none" stroke="#000000" stroke-width="5.0439" stroke-linejoin="round" stroke-miterlimit="10" d="M291,154.375
		c-47.171-28.413-95.621-56.641-135.085-42.436c-39.444,14.205-85.783,106.545-102.936,127.855"/>
	<polyline fill="none" stroke="#000000" stroke-width="5.0439" stroke-linejoin="round" stroke-miterlimit="10" points="
		290.25,114.375 289.98,91.555 350.833,138.75 289.738,174.761 289.738,152.5 	"/>
	<g>
		<path stroke="#000000" stroke-width="2" stroke-linejoin="bevel" stroke-miterlimit="10" d="M245.116,148.016l0.102-37.841
			l4.548,0.015l-0.086,37.842L245.116,148.016L245.116,148.016z M240.65,112.447l6.854-13.661l6.824,13.697L240.65,112.447
			L240.65,112.447z"/>
		
			<line fill="none" stroke="#000000" stroke-width="3" stroke-linejoin="round" stroke-miterlimit="10" x1="234.854" y1="148.717" x2="259.479" y2="148.819"/>
	</g>
	
		<line fill="none" stroke="#000000" stroke-width="5" stroke-miterlimit="10" x1="217.009" y1="115.849" x2="217.009" y2="144.048"/>
	<line fill="none" stroke="#000000" stroke-width="5" stroke-miterlimit="10" x1="272.5" y1="117.448" x2="272.5" y2="145.646"/>
</g>
</svg>
