<?xml version="1.0" encoding="utf-8"?>
<!-- Generator: Adobe Illustrator 16.0.0, SVG Export Plug-In . SVG Version: 6.00 Build 0)  -->
<!DOCTYPE svg PUBLIC "-//W3C//DTD SVG 1.1//EN" "http://www.w3.org/Graphics/SVG/1.1/DTD/svg11.dtd">
<svg version="1.1" id="Version_1.0" xmlns="http://www.w3.org/2000/svg" xmlns:xlink="http://www.w3.org/1999/xlink" x="0px"
	 y="0px" width="612px" height="792px" viewBox="0 0 612 792" enable-background="new 0 0 612 792" xml:space="preserve">
<g id="main">
	<path stroke="#000000" stroke-width="5" d="M230.5,395.238c0,0-65.308,2.843-50-14c15.308-16.842,100-19,100-19l25-142l25,142
		c0,0,84.857,2.74,100,19c15.143,16.261-50,14-50,14H230.5z"/>
	<path stroke="#000000" stroke-width="5" d="M305.5,116.239c82.842,0,150,62.579,150,104c0,29.938-43.902,61.631-80,63
		c-35.15,1.333-34.055-62.18-70-62.5c-35.945-0.32-33.143,63.331-69,62.5c-36.692-0.85-81-32.242-81-63
		C155.5,178.818,222.658,116.239,305.5,116.239z"/>
</g>
</svg>
