<?xml version="1.0" encoding="utf-8"?>
<!-- Generator: Adobe Illustrator 16.0.0, SVG Export Plug-In . SVG Version: 6.00 Build 0)  -->
<!DOCTYPE svg PUBLIC "-//W3C//DTD SVG 1.1//EN" "http://www.w3.org/Graphics/SVG/1.1/DTD/svg11.dtd">
<svg version="1.1" id="Version_1.0" xmlns="http://www.w3.org/2000/svg" xmlns:xlink="http://www.w3.org/1999/xlink" x="0px"
	 y="0px" width="400px" height="400px" viewBox="0 0 400 400" enable-background="new 0 0 400 400" xml:space="preserve">
<g id="main">
	<g>
		<g>
			<g>
				<line fill="none" stroke="#000000" stroke-width="5" x1="116.5" y1="183.445" x2="363.488" y2="183.445"/>
				<g>
					<path d="M329.316,207.443c-0.742-1.162-0.397-2.709,0.768-3.451l32.263-20.547l-32.263-20.547
						c-1.165-0.742-1.51-2.29-0.768-3.452s2.298-1.499,3.453-0.767l35.573,22.656c0.72,0.459,1.157,1.255,1.157,2.109
						s-0.438,1.65-1.157,2.109l-35.573,22.657c-0.416,0.264-0.882,0.391-1.341,0.391
						C330.604,208.602,329.795,208.191,329.316,207.443z"/>
				</g>
			</g>
		</g>
	</g>
	
		<g transform="translate(-1.77778 -49.3333) translate(41 71.5) rotate(9.0906 200 200) rotate(1.11612 199.922 199.512) translate(-3.53441 -2.07318) translate(-0.043633 2.26581)">
		<polygon fill="#FFFFFF" stroke="#000000" stroke-width="5.7063" points="128.497,189.055 123.599,159.79 184.59,178.509 
			179.88,150.368 		"/>
	</g>
</g>
</svg>
