<?xml version="1.0" encoding="utf-8"?>
<!-- Generator: Adobe Illustrator 16.0.0, SVG Export Plug-In . SVG Version: 6.00 Build 0)  -->
<!DOCTYPE svg PUBLIC "-//W3C//DTD SVG 1.1//EN" "http://www.w3.org/Graphics/SVG/1.1/DTD/svg11.dtd">
<svg version="1.1" id="Version_1.0" xmlns="http://www.w3.org/2000/svg" xmlns:xlink="http://www.w3.org/1999/xlink" x="0px"
	 y="0px" width="400px" height="400px" viewBox="0 0 400 400" enable-background="new 0 0 400 400" xml:space="preserve">
<g id="main">
	
		<line fill="none" stroke="#000000" stroke-width="4.8501" stroke-linejoin="round" stroke-miterlimit="10" x1="74.857" y1="196.378" x2="142.795" y2="196.378"/>
	
		<line fill="none" stroke="#000000" stroke-width="4.8501" stroke-linejoin="round" stroke-miterlimit="10" x1="142.795" y1="142.062" x2="142.795" y2="246.691"/>
	<path stroke="#000000" stroke-width="0.2906" stroke-linejoin="bevel" stroke-miterlimit="10" d="M140.795,141.647h91.551v4.85
		h-91.551V141.647L140.795,141.647z M229.912,131.965l24.232,12.097l-24.232,12.117V131.965L229.912,131.965z"/>
	<path stroke="#000000" stroke-width="0.2906" stroke-linejoin="bevel" stroke-miterlimit="10" d="M142.795,193.961h57.508v4.851
		h-57.508V193.961L142.795,193.961z M197.889,184.28l24.212,12.098l-24.212,12.115V184.28L197.889,184.28z"/>
	<path stroke="#000000" stroke-width="0.2906" stroke-linejoin="bevel" stroke-miterlimit="10" d="M140.795,245.277h34.875v4.849
		h-34.875V245.277L140.795,245.277z M173.236,235.595l24.232,12.099l-24.232,12.117V235.595L173.236,235.595z"/>
</g>
</svg>
