<?xml version="1.0" encoding="utf-8"?>
<!-- Generator: Adobe Illustrator 16.0.0, SVG Export Plug-In . SVG Version: 6.00 Build 0)  -->
<!DOCTYPE svg PUBLIC "-//W3C//DTD SVG 1.1//EN" "http://www.w3.org/Graphics/SVG/1.1/DTD/svg11.dtd">
<svg version="1.1" id="Version_1.0" xmlns="http://www.w3.org/2000/svg" xmlns:xlink="http://www.w3.org/1999/xlink" x="0px"
	 y="0px" width="400px" height="400px" viewBox="0 0 400 400" enable-background="new 0 0 400 400" xml:space="preserve">
<g id="main">
	<g id="red" display="none">
		<g display="inline">
			<path fill="none" stroke="#FF0000" stroke-width="7" stroke-linecap="round" stroke-linejoin="round" d="M156.972,115.492
				c-4.055,0.431-8.222,0.799-12.453,1.135"/>
			
				<path fill="none" stroke="#FF0000" stroke-width="7" stroke-linecap="round" stroke-linejoin="round" stroke-dasharray="24.8878,19.9103" d="
				M124.658,118.064c-33.709,2.409-66.713,5.673-75.776,24.13c-12.01,24.46-9.997,97.839,36.03,120.08
				c46.028,22.236,194.148,31.146,240.177,13.353c46.027-17.794,40.034-93.396,36.03-120.099
				c-4.003-26.681-26.032-33.347-60.051-40.032c-28.473-5.581-80.793-4.935-121.734-1.97"/>
			<path fill="none" stroke="#FF0000" stroke-width="7" stroke-linecap="round" stroke-linejoin="round" d="M169.414,114.308
				c-4.343,0.372-8.506,0.769-12.442,1.185"/>
		</g>
	</g>
	<g id="black">
		<g>
			<path fill="none" stroke="#000000" stroke-width="7" stroke-linecap="round" stroke-linejoin="round" d="M156.972,115.492
				c-4.055,0.431-8.222,0.799-12.453,1.135"/>
			
				<path fill="none" stroke="#000000" stroke-width="7" stroke-linecap="round" stroke-linejoin="round" stroke-dasharray="24.8878,19.9103" d="
				M124.658,118.064c-33.709,2.409-66.713,5.673-75.776,24.13c-12.01,24.46-9.997,97.839,36.03,120.08
				c46.028,22.236,194.148,31.146,240.177,13.353c46.027-17.794,40.034-93.396,36.03-120.099
				c-4.003-26.681-26.032-33.347-60.051-40.032c-28.473-5.581-80.793-4.935-121.734-1.97"/>
			<path fill="none" stroke="#000000" stroke-width="7" stroke-linecap="round" stroke-linejoin="round" d="M169.414,114.308
				c-4.343,0.372-8.506,0.769-12.442,1.185"/>
		</g>
	</g>
</g>
</svg>
