<?xml version="1.0" encoding="utf-8"?>
<!-- Generator: Adobe Illustrator 16.0.0, SVG Export Plug-In . SVG Version: 6.00 Build 0)  -->
<!DOCTYPE svg PUBLIC "-//W3C//DTD SVG 1.1//EN" "http://www.w3.org/Graphics/SVG/1.1/DTD/svg11.dtd">
<svg version="1.1" id="Version_1.0" xmlns="http://www.w3.org/2000/svg" xmlns:xlink="http://www.w3.org/1999/xlink" x="0px"
	 y="0px" width="400px" height="400px" viewBox="0 0 400 400" enable-background="new 0 0 400 400" xml:space="preserve">
<g id="main">
	
		<path fill="none" stroke="#000000" stroke-width="4.4552" stroke-linecap="round" stroke-linejoin="round" stroke-miterlimit="10" d="
		M195.559,122.345c-47.221,0-85.483,38.261-85.483,85.433c0,47.19,38.263,85.436,85.483,85.436
		c47.225,0,85.484-38.242,85.484-85.436C281.043,160.606,242.783,122.345,195.559,122.345"/>
	
		<path fill="none" stroke="#000000" stroke-width="4.4552" stroke-linecap="round" stroke-linejoin="round" stroke-miterlimit="10" d="
		M195.559,149.043c-31.486,0-57.017,26.297-57.017,58.734c0,32.455,25.53,58.736,57.017,58.736
		c31.487,0,57.018-26.281,57.018-58.736C252.576,175.34,227.045,149.043,195.559,149.043"/>
	
		<path fill="none" stroke="#000000" stroke-width="4.4552" stroke-linecap="round" stroke-linejoin="round" stroke-miterlimit="10" d="
		M195.559,181.08c-15.752,0-28.532,11.964-28.532,26.697c0,14.753,12.78,26.697,28.532,26.697c15.77,0,28.535-11.944,28.535-26.697
		C224.094,193.044,211.328,181.08,195.559,181.08"/>
	<g>
		<polygon fill="#FFFFFF" points="211.293,189.54 211.293,221.578 232.771,221.578 232.771,189.54 		"/>
		<text transform="matrix(1 0 0 1 216.252 213.334)" font-family="sans-serif" font-size="21.0914">1</text>
	</g>
	<g>
		<polygon fill="#FFFFFF" points="240.779,189.54 240.779,221.578 262.137,221.578 262.137,189.54 		"/>
		<text transform="matrix(1 0 0 1 245.627 213.334)" font-family="sans-serif" font-size="21.0914">2</text>
	</g>
	<g>
		<polygon fill="#FFFFFF" points="270.146,189.54 270.146,221.578 291.506,221.578 291.506,189.54 		"/>
		<text transform="matrix(1 0 0 1 274.9844 213.334)" font-family="sans-serif" font-size="21.0914">3</text>
	</g>
</g>
</svg>
