<?xml version="1.0" encoding="utf-8"?>
<!-- Generator: Adobe Illustrator 16.0.0, SVG Export Plug-In . SVG Version: 6.00 Build 0)  -->
<!DOCTYPE svg PUBLIC "-//W3C//DTD SVG 1.1//EN" "http://www.w3.org/Graphics/SVG/1.1/DTD/svg11.dtd">
<svg version="1.1" id="Version_1.0" xmlns="http://www.w3.org/2000/svg" xmlns:xlink="http://www.w3.org/1999/xlink" x="0px"
	 y="0px" width="612px" height="792px" viewBox="0 0 612 792" enable-background="new 0 0 612 792" xml:space="preserve">
<g id="main">
	
		<g transform="translate(-133.735 -1.80723) translate(145 350) scale(0.344828 0.344828) translate(-145 -350) translate(-6.98795 -143.253)">
		<polygon fill="none" stroke="#000000" stroke-width="5" stroke-linejoin="round" points="480.686,797.91 510.686,497.911 
			540.686,797.91 510.686,722.912 		"/>
		<line fill="none" stroke="#000000" stroke-width="5" x1="496.686" y1="632.911" x2="523.686" y2="632.911"/>
		
			<line fill="none" stroke="#000000" stroke-width="5" stroke-linecap="round" x1="460.686" y1="530.912" x2="560.687" y2="530.912"/>
		<line fill="none" stroke="#000000" stroke-width="5" x1="518.686" y1="531.909" x2="600.686" y2="727.911"/>
		<path fill="none" stroke="#000000" stroke-width="5" stroke-linecap="round" d="M460.686,530.912l-5,6.998v10"/>
		<path fill="none" stroke="#000000" stroke-width="5" stroke-linecap="round" d="M560.687,530.912l5,6.998v10"/>
	</g>
	
		<g transform="translate(96.988 4.81928) translate(145 350) scale(0.34 0.34) translate(-145 -350) translate(0 -14.1743) translate(0 -2.94118) translate(0 -2.94118) translate(287.03 -145.287)">
		<polygon fill="none" stroke="#000000" stroke-width="5" stroke-linejoin="round" points="485.096,804.272 515.1,504.272 
			545.097,804.272 515.1,729.272 		"/>
		<line fill="none" stroke="#000000" stroke-width="5" x1="501.1" y1="639.27" x2="528.099" y2="639.27"/>
		<line fill="none" stroke="#000000" stroke-width="5" stroke-linecap="round" x1="465.1" y1="537.271" x2="565.1" y2="537.271"/>
		<line fill="none" stroke="#000000" stroke-width="5" x1="523.096" y1="538.27" x2="605.099" y2="734.272"/>
		<path fill="none" stroke="#000000" stroke-width="5" stroke-linecap="round" d="M465.1,537.271l-5.003,7.001v10"/>
		<path fill="none" stroke="#000000" stroke-width="5" stroke-linecap="round" d="M565.1,537.271l4.998,7.001v10"/>
	</g>
	<line fill="none" stroke="#000000" stroke-width="3" x1="167.133" y1="394.452" x2="447.133" y2="394.452"/>
</g>
</svg>
