<?xml version="1.0" encoding="utf-8"?>
<!-- Generator: Adobe Illustrator 16.0.0, SVG Export Plug-In . SVG Version: 6.00 Build 0)  -->
<!DOCTYPE svg PUBLIC "-//W3C//DTD SVG 1.1//EN" "http://www.w3.org/Graphics/SVG/1.1/DTD/svg11.dtd">
<svg version="1.1" id="Version_1.0" xmlns="http://www.w3.org/2000/svg" xmlns:xlink="http://www.w3.org/1999/xlink" x="0px"
	 y="0px" width="400px" height="400px" viewBox="0 0 400 400" enable-background="new 0 0 400 400" xml:space="preserve">
<g id="main">
	<path fill="none" stroke="#000000" stroke-width="2" d="M105.838,195.867C128.893,13.1,390.387,45.06,382.338,214.066
		c-6.03,126.617-191.758,174.385-261.1,51.801"/>
	<polyline fill="none" stroke="#000000" stroke-width="2" points="119.25,148.5 169.652,147.896 147.25,108.25 	"/>
	<polyline fill="none" stroke="#000000" stroke-width="2" points="215.5,75 237.602,112.126 262.75,73.867 	"/>
	<polyline fill="none" stroke="#000000" stroke-width="2" points="163,311.25 197.232,283.038 200.619,330.859 	"/>
	<polyline fill="none" stroke="#000000" stroke-width="2" points="248.945,336.305 273.195,290.305 295.523,326.523 	"/>
	<polyline fill="none" stroke="#000000" stroke-width="2" points="332.75,102.746 310.121,140.645 366,141.5 	"/>
	<polyline fill="none" stroke="#000000" stroke-width="2" points="380,180 343.25,204.723 380,230.75 	"/>
	<polyline fill="none" stroke="#000000" stroke-width="2" points="371.06,260.073 319.806,260.674 343.25,297.25 	"/>
	<polyline fill="none" stroke="#000000" stroke-width="2" points="121,309.5 121.238,265.867 156.729,265.447 	"/>
	<g transform="translate(182 32) translate(0 -1)">
		<rect x="191" y="157" fill="#FFFFFF" stroke="#FFFFFF" width="25" height="35"/>
		<text transform="matrix(1 0 0 1 194.1377 187)" font-family="sans-serif" font-size="35">I</text>
	</g>
</g>
</svg>
