<?xml version="1.0" encoding="utf-8"?>
<!-- Generator: Adobe Illustrator 16.0.0, SVG Export Plug-In . SVG Version: 6.00 Build 0)  -->
<!DOCTYPE svg PUBLIC "-//W3C//DTD SVG 1.1//EN" "http://www.w3.org/Graphics/SVG/1.1/DTD/svg11.dtd">
<svg version="1.1" id="Version_1.0" xmlns="http://www.w3.org/2000/svg" xmlns:xlink="http://www.w3.org/1999/xlink" x="0px"
	 y="0px" width="612px" height="792px" viewBox="0 0 612 792" enable-background="new 0 0 612 792" xml:space="preserve">
<g id="main">
	<g>
		
			<line fill="none" stroke="#000000" stroke-width="5" stroke-linejoin="round" stroke-miterlimit="10" x1="365.922" y1="407.336" x2="426.817" y2="351.142"/>
		
			<line fill="none" stroke="#000000" stroke-width="5" stroke-linejoin="round" stroke-miterlimit="10" x1="244.198" y1="407.336" x2="305.024" y2="351.142"/>
		
			<line fill="none" stroke="#000000" stroke-width="5" stroke-linejoin="round" stroke-miterlimit="10" x1="122.406" y1="407.336" x2="183.302" y2="351.142"/>
		
			<line fill="none" stroke="#000000" stroke-width="5" stroke-linejoin="round" stroke-miterlimit="10" x1="244.198" y1="407.336" x2="183.302" y2="351.142"/>
		
			<line fill="none" stroke="#000000" stroke-width="5" stroke-linejoin="round" stroke-miterlimit="10" x1="487.644" y1="407.336" x2="426.817" y2="351.142"/>
		
			<line fill="none" stroke="#000000" stroke-width="5" stroke-linejoin="round" stroke-miterlimit="10" x1="365.922" y1="407.336" x2="305.024" y2="351.142"/>
	</g>
	
		<line fill="none" stroke="#000000" stroke-width="5" stroke-linejoin="round" stroke-miterlimit="10" x1="305.024" y1="351.142" x2="305.024" y2="330.154"/>
	<polygon stroke="#000000" stroke-width="5" stroke-linejoin="round" stroke-miterlimit="10" points="151.25,349.295 
		163.566,369.827 146.434,384.221 123.858,358.913 123.335,318.045 151.25,318.045 	"/>
	<polygon stroke="#000000" stroke-width="5" stroke-linejoin="round" stroke-miterlimit="10" points="481.27,318.045 
		478.896,361.699 457.022,380.546 441.946,365.119 453.352,354.372 453.352,318.045 	"/>
	<polygon stroke="#000000" stroke-width="5" stroke-linejoin="round" stroke-miterlimit="10" points="353.279,278.813 
		353.279,308.902 328.784,330.154 280.144,330.154 255.58,308.902 255.58,278.813 280.144,257.5 328.784,257.5 	"/>
</g>
</svg>
