<?xml version="1.0" encoding="utf-8"?>
<!-- Generator: Adobe Illustrator 16.0.0, SVG Export Plug-In . SVG Version: 6.00 Build 0)  -->
<!DOCTYPE svg PUBLIC "-//W3C//DTD SVG 1.1//EN" "http://www.w3.org/Graphics/SVG/1.1/DTD/svg11.dtd">
<svg version="1.1" id="Version_1.0" xmlns="http://www.w3.org/2000/svg" xmlns:xlink="http://www.w3.org/1999/xlink" x="0px"
	 y="0px" width="612px" height="792px" viewBox="0 0 612 792" enable-background="new 0 0 612 792" xml:space="preserve">
<g id="main">
	<polygon fill="none" stroke="#000000" stroke-width="5" points="165.74,478.043 305.74,235.543 445.739,478.043 	"/>
	<path d="M354.134,395.793c-0.645-0.125-3.295,0.91-7.944,3.095c-2.976,1.29-6.399,3.29-10.271,6
		c-14.215,9.415-24.226,22.12-30.04,38.105c-0.265,0-0.645-0.32-1.165-0.966c-2.195-6.959-6.14-13.93-11.825-20.896
		c-5.945-7.475-12.79-13.67-20.54-18.563c-3.625-2.32-8.595-4.644-14.925-6.961c-0.105-0.26-0.105-0.455,0-0.584
		c1.675-0.771,3.94-1.74,6.785-2.9c7.36-2.45,15.21-8.061,23.545-16.83s13.79-17.016,16.375-24.755c0.39-1.03,0.965-2.065,1.745-3.1
		c2.45,7.61,7.104,15.541,13.955,23.794c7.235,8.896,14.66,15.215,22.285,18.949c1.68,0.778,4.396,2.006,8.145,3.676
		C351.414,393.988,352.704,394.633,354.134,395.793z"/>
</g>
</svg>
