<?xml version="1.0" encoding="utf-8"?>
<!-- Generator: Adobe Illustrator 16.0.0, SVG Export Plug-In . SVG Version: 6.00 Build 0)  -->
<!DOCTYPE svg PUBLIC "-//W3C//DTD SVG 1.1//EN" "http://www.w3.org/Graphics/SVG/1.1/DTD/svg11.dtd">
<svg version="1.1" id="Version_1.0" xmlns="http://www.w3.org/2000/svg" xmlns:xlink="http://www.w3.org/1999/xlink" x="0px"
	 y="0px" width="400px" height="400px" viewBox="0 0 400 400" enable-background="new 0 0 400 400" xml:space="preserve">
<g id="main">
	
		<path fill="none" stroke="#000000" stroke-width="5" stroke-linecap="round" stroke-linejoin="round" stroke-miterlimit="10" stroke-dasharray="3,10" d="
		M242.201,335.283c16.477,0,29.831-12.563,29.831-28.034c0-15.498-13.354-28.036-29.831-28.036"/>
	
		<path fill="none" stroke="#000000" stroke-width="5" stroke-linecap="round" stroke-linejoin="round" stroke-miterlimit="10" stroke-dasharray="3,10" d="
		M242.201,278.831c16.477,0,29.831-12.562,29.831-28.035c0-15.497-13.354-28.035-29.831-28.035"/>
	
		<path fill="none" stroke="#000000" stroke-width="5" stroke-linecap="round" stroke-linejoin="round" stroke-miterlimit="10" stroke-dasharray="3,10" d="
		M242.201,222.212c16.477,0,29.831-12.562,29.831-28.035c0-15.498-13.354-28.036-29.831-28.036"/>
	
		<path fill="none" stroke="#000000" stroke-width="5" stroke-linecap="round" stroke-linejoin="round" stroke-miterlimit="10" stroke-dasharray="3,10" d="
		M242.201,164.442c16.477,0,29.831-12.562,29.831-28.035c0-15.498-13.354-28.036-29.831-28.036"/>
	
		<path fill="none" stroke="#000000" stroke-width="5" stroke-linecap="round" stroke-linejoin="round" stroke-miterlimit="10" stroke-dasharray="3,10" d="
		M242.201,108.372c16.477,0,29.831-12.562,29.831-28.035c0-15.498-13.354-28.036-29.831-28.036"/>
</g>
</svg>
