<?xml version="1.0" encoding="utf-8"?>
<!-- Generator: Adobe Illustrator 16.0.0, SVG Export Plug-In . SVG Version: 6.00 Build 0)  -->
<!DOCTYPE svg PUBLIC "-//W3C//DTD SVG 1.1//EN" "http://www.w3.org/Graphics/SVG/1.1/DTD/svg11.dtd">
<svg version="1.1" id="Version_1.0" xmlns="http://www.w3.org/2000/svg" xmlns:xlink="http://www.w3.org/1999/xlink" x="0px"
	 y="0px" width="400px" height="400px" viewBox="0 0 400 400" enable-background="new 0 0 400 400" xml:space="preserve">
<g id="main">
	
		<path fill="none" stroke="#000000" stroke-width="3.6281" stroke-linecap="round" stroke-linejoin="round" stroke-miterlimit="10" d="
		M209.691,53.165c-78.023,0-141.26,60.662-141.26,135.51c0,74.845,63.237,135.507,141.26,135.507
		c78.002,0,141.236-60.662,141.236-135.507C350.931,113.827,287.693,53.165,209.691,53.165"/>
	
		<path fill="none" stroke="#000000" stroke-width="3.6281" stroke-linecap="round" stroke-linejoin="round" stroke-miterlimit="10" d="
		M209.617,103.704c-48.924,0-88.579,38.041-88.579,84.971c0,46.909,39.655,84.949,88.579,84.949
		c48.943,0,88.598-38.04,88.598-84.949C298.215,141.745,258.561,103.704,209.617,103.704"/>
	
		<path fill="none" stroke="#000000" stroke-width="3.6281" stroke-linecap="round" stroke-linejoin="round" stroke-miterlimit="10" d="
		M209.691,157.4c-17.979,0-32.544,13.968-32.544,31.201c0,17.234,14.566,31.204,32.544,31.204c17.957,0,32.522-13.97,32.522-31.204
		C242.217,171.368,227.648,157.4,209.691,157.4"/>
	<text transform="matrix(1 0 0 1 173.9561 237.377)" font-family="sans-serif" font-size="14">MIN RG</text>
	<text transform="matrix(1 0 0 1 155.6826 342.7227)" font-family="sans-serif" font-size="14">MAX RG(2)</text>
	<text transform="matrix(1 0 0 1 154.8145 292.4971)" font-family="sans-serif" font-size="14">MAX RG(1)</text>
	<text transform="matrix(1 0 0 1 187.0313 258.5586)" font-family="sans-serif" font-size="14">ALT</text>
	<text transform="matrix(1 0 0 1 183.5547 311.96)" font-family="sans-serif" font-size="14">ALT</text>
	<text transform="matrix(1 0 0 1 189.9219 361.8643)" font-family="sans-serif" font-size="14">ALT</text>
</g>
</svg>
