<?xml version="1.0" encoding="utf-8"?>
<!-- Generator: Adobe Illustrator 16.0.0, SVG Export Plug-In . SVG Version: 6.00 Build 0)  -->
<!DOCTYPE svg PUBLIC "-//W3C//DTD SVG 1.1//EN" "http://www.w3.org/Graphics/SVG/1.1/DTD/svg11.dtd">
<svg version="1.1" id="Version_1.0" xmlns="http://www.w3.org/2000/svg" xmlns:xlink="http://www.w3.org/1999/xlink" x="0px"
	 y="0px" width="400px" height="400px" viewBox="0 0 400 400" enable-background="new 0 0 400 400" xml:space="preserve">
<pattern  x="-105.5" y="596.5" width="72" height="72" patternUnits="userSpaceOnUse" id="SVGID_2_" viewBox="20 -72 72 72" overflow="visible">
	<g>
		<polygon fill="none" points="20,0 92,0 92,-72 20,-72 		"/>
		<g>
			<polygon fill="none" points="20,-72 92,-72 92,0 20,0 			"/>
			<g>
				<polygon fill="none" points="20,0 20,-72 92,-72 92,0 				"/>
				<line fill="none" stroke="#0000FF" stroke-width="1.44" x1="19.75" y1="-3.6" x2="92.25" y2="-3.6"/>
				<line fill="none" stroke="#0000FF" stroke-width="1.44" x1="19.75" y1="-18" x2="92.25" y2="-18"/>
				<line fill="none" stroke="#0000FF" stroke-width="1.44" x1="19.75" y1="-32.398" x2="92.25" y2="-32.398"/>
				<line fill="none" stroke="#0000FF" stroke-width="1.44" x1="19.75" y1="-46.8" x2="92.25" y2="-46.8"/>
				<line fill="none" stroke="#0000FF" stroke-width="1.44" x1="19.75" y1="-61.2" x2="92.25" y2="-61.2"/>
				<line fill="none" stroke="#0000FF" stroke-width="1.44" x1="0" y1="-61.2" x2="14" y2="-61.2"/>
				<line fill="none" stroke="#0000FF" stroke-width="1.44" x1="19.75" y1="-10.8" x2="92.25" y2="-10.8"/>
				<line fill="none" stroke="#0000FF" stroke-width="1.44" x1="19.75" y1="-25.2" x2="92.25" y2="-25.2"/>
				<line fill="none" stroke="#0000FF" stroke-width="1.44" x1="19.75" y1="-39.6" x2="92.25" y2="-39.6"/>
				<line fill="none" stroke="#0000FF" stroke-width="1.44" x1="19.75" y1="-54" x2="92.25" y2="-54"/>
				<line fill="none" stroke="#0000FF" stroke-width="1.44" x1="19.75" y1="-68.398" x2="92.25" y2="-68.398"/>
				<line fill="none" stroke="#0000FF" stroke-width="1.44" x1="0" y1="-68.398" x2="14" y2="-68.398"/>
			</g>
		</g>
	</g>
</pattern>
<g id="main">
	<pattern  id="SVGID_1_" xlink:href="#SVGID_2_" patternTransform="matrix(0.7071 -0.7071 0.7071 0.7071 -786.6226 4528.2129)">
	</pattern>
	
		<path fill="url(#SVGID_1_)" stroke="#000000" stroke-width="5" stroke-linecap="round" stroke-linejoin="round" stroke-miterlimit="10" d="
		M183.543,46.847c-86.479,0-156.582,67.732-156.582,151.288c0,83.576,70.103,151.309,156.582,151.309
		c86.48,0,156.581-67.731,156.581-151.309C340.124,114.579,270.023,46.847,183.543,46.847"/>
	<g>
		<rect x="151.71" y="88.5" fill="#FFFFFF" width="54.03" height="28.725"/>
		<text transform="matrix(1 0 0 1 155.9263 111.0313)" font-family="sans-serif" font-size="24">NFA</text>
	</g>
</g>
</svg>
