<?xml version="1.0" encoding="utf-8"?>
<!-- Generator: Adobe Illustrator 16.0.0, SVG Export Plug-In . SVG Version: 6.00 Build 0)  -->
<!DOCTYPE svg PUBLIC "-//W3C//DTD SVG 1.1//EN" "http://www.w3.org/Graphics/SVG/1.1/DTD/svg11.dtd">
<svg version="1.1" id="Version_1.0" xmlns="http://www.w3.org/2000/svg" xmlns:xlink="http://www.w3.org/1999/xlink" x="0px"
	 y="0px" width="400px" height="400px" viewBox="0 0 400 400" enable-background="new 0 0 400 400" xml:space="preserve">
<g id="main" transform="translate(-110 -60) scale(1.25 1.25)">
	<text transform="matrix(0.8 0 0 0.8 212.5992 251.1992)" font-family="sans-serif" font-size="25">G</text>
	<text transform="matrix(0.8 0 0 0.8 269.5992 250.1992)" font-family="sans-serif" font-size="25">G</text>
	<g>
		<g>
			<polyline fill="none" stroke="#000000" stroke-width="2" points="293.6,243.2 364.918,243.2 354.373,252.836 394.813,252.836 			
				"/>
			<g>
				<path d="M383.877,260.516c-0.237-0.372-0.127-0.867,0.245-1.105l10.324-6.575l-10.324-6.575
					c-0.373-0.238-0.483-0.733-0.245-1.105c0.238-0.372,0.734-0.48,1.105-0.245l11.384,7.25c0.23,0.147,0.37,0.402,0.37,0.675
					s-0.14,0.528-0.37,0.675l-11.384,7.25c-0.133,0.084-0.282,0.125-0.429,0.125C384.289,260.886,384.03,260.755,383.877,260.516z"
					/>
			</g>
		</g>
	</g>
	<g>
		<g>
			<polyline fill="none" stroke="#000000" stroke-width="2" points="203.266,243.533 131.948,243.533 144.133,253.533 
				103.391,253.533 			"/>
			<g>
				<path d="M114.325,245.853c0.237,0.372,0.127,0.867-0.245,1.105l-10.324,6.575l10.324,6.575c0.373,0.237,0.483,0.733,0.245,1.105
					c-0.238,0.373-0.735,0.48-1.105,0.245l-11.384-7.25c-0.23-0.147-0.37-0.402-0.37-0.675c0-0.273,0.14-0.528,0.37-0.675
					l11.384-7.25c0.133-0.084,0.282-0.125,0.429-0.125C113.914,245.483,114.172,245.614,114.325,245.853z"/>
			</g>
		</g>
	</g>
</g>
</svg>
