<?xml version="1.0" encoding="utf-8"?>
<!-- Generator: Adobe Illustrator 16.0.0, SVG Export Plug-In . SVG Version: 6.00 Build 0)  -->
<!DOCTYPE svg PUBLIC "-//W3C//DTD SVG 1.1//EN" "http://www.w3.org/Graphics/SVG/1.1/DTD/svg11.dtd">
<svg version="1.1" id="Version_1.0" xmlns="http://www.w3.org/2000/svg" xmlns:xlink="http://www.w3.org/1999/xlink" x="0px"
	 y="0px" width="612px" height="792px" viewBox="0 0 612 792" enable-background="new 0 0 612 792" xml:space="preserve">
<g id="main">
	<polygon fill="none" stroke="#000000" stroke-width="5" stroke-linecap="round" stroke-miterlimit="8" points="305.01,395.762 
		378.596,278.062 231.425,278.062 	"/>
	<g>
		<path stroke="#000000" stroke-width="1.1654" d="M284.252,307.355c-3.894,0-7.046,4.143-7.046,9.229
			c0,5.11,3.152,9.229,7.046,9.229c3.895,0,7.045-4.119,7.045-9.229C291.297,311.499,288.146,307.355,284.252,307.355"/>
		<path fill="none" stroke="#000000" stroke-width="5.1568" stroke-linejoin="round" stroke-miterlimit="10" d="M285.252,309.351
			c16.783,0,30.381,17.71,30.381,39.537"/>
		<path fill="none" stroke="#000000" stroke-width="5.1568" stroke-linejoin="round" stroke-miterlimit="10" d="M327.741,309.351
			c-16.784,0-30.38,17.71-30.38,39.537"/>
		<path stroke="#000000" stroke-width="1.135" d="M328.516,307.103c-3.77,0-6.819,4.059-6.819,9.043
			c0,5.007,3.052,9.043,6.819,9.043c3.771,0,6.82-4.037,6.82-9.043C335.336,311.162,332.286,307.103,328.516,307.103"/>
	</g>
	<text transform="matrix(1 0 0 1 298.1074 305.5615)" font-family="sans-serif" font-size="28">N</text>
</g>
</svg>
