<?xml version="1.0" encoding="utf-8"?>
<!-- Generator: Adobe Illustrator 16.0.0, SVG Export Plug-In . SVG Version: 6.00 Build 0)  -->
<!DOCTYPE svg PUBLIC "-//W3C//DTD SVG 1.1//EN" "http://www.w3.org/Graphics/SVG/1.1/DTD/svg11.dtd">
<svg version="1.1" id="Version_1.0" xmlns="http://www.w3.org/2000/svg" xmlns:xlink="http://www.w3.org/1999/xlink" x="0px"
	 y="0px" width="400px" height="400px" viewBox="0 0 400 400" enable-background="new 0 0 400 400" xml:space="preserve">
<g id="main">
	<line fill="none" stroke="#000000" stroke-width="5" x1="110.995" y1="234.01" x2="307.494" y2="234.057"/>
	<line fill="none" stroke="#000000" stroke-width="5" x1="111.658" y1="233.389" x2="62.984" y2="281.999"/>
	<line fill="none" stroke="#000000" stroke-width="5" x1="306.305" y1="233.684" x2="355.482" y2="285.066"/>
	<g>
		<g>
			<line fill="none" stroke="#000000" stroke-width="5" x1="305.104" y1="234.03" x2="318.822" y2="143.83"/>
			<g>
				<path d="M332.764,171.873c-0.944,0.419-2.055-0.01-2.474-0.958l-11.597-26.239l-18.873,21.605
					c-0.682,0.78-1.868,0.86-2.646,0.179c-0.777-0.681-0.854-1.873-0.179-2.646l20.811-23.822c0.421-0.482,1.063-0.716,1.694-0.62
					c0.633,0.096,1.175,0.51,1.434,1.096l12.787,28.932c0.148,0.337,0.19,0.698,0.141,1.038
					C333.767,171.05,333.371,171.603,332.764,171.873z"/>
			</g>
		</g>
	</g>
	<g>
		<g>
			<line fill="none" stroke="#000000" stroke-width="5" x1="110.456" y1="234.03" x2="96.235" y2="147.948"/>
			<g>
				<path d="M118.171,170.3c-0.77,0.691-1.957,0.626-2.648-0.145l-19.148-21.362l-11.26,26.385c-0.407,0.953-1.51,1.396-2.46,0.989
					c-0.95-0.407-1.39-1.517-0.989-2.46l12.416-29.093c0.251-0.589,0.787-1.01,1.419-1.114s1.274,0.122,1.702,0.599l21.114,23.554
					c0.246,0.275,0.397,0.604,0.453,0.944C118.87,169.207,118.665,169.855,118.171,170.3z"/>
			</g>
		</g>
	</g>
</g>
</svg>
