<?xml version="1.0" encoding="utf-8"?>
<!-- Generator: Adobe Illustrator 16.0.0, SVG Export Plug-In . SVG Version: 6.00 Build 0)  -->
<!DOCTYPE svg PUBLIC "-//W3C//DTD SVG 1.1//EN" "http://www.w3.org/Graphics/SVG/1.1/DTD/svg11.dtd">
<svg version="1.1" id="Version_1.0" xmlns="http://www.w3.org/2000/svg" xmlns:xlink="http://www.w3.org/1999/xlink" x="0px"
	 y="0px" width="612px" height="792px" viewBox="0 0 612 792" enable-background="new 0 0 612 792" xml:space="preserve">
<g id="main">
	<polygon fill="none" stroke="#000000" stroke-width="5" stroke-linecap="round" stroke-miterlimit="8" points="305.5,394.762 
		379.086,277.062 231.916,277.062 	"/>
	<text transform="matrix(1 0 0 1 297.5977 378.2295)" font-family="sans-serif" font-size="28">T</text>
	<g>
		<path stroke="#000000" stroke-width="1.1654" d="M284.742,306.355c-3.893,0-7.045,4.143-7.045,9.229
			c0,5.11,3.152,9.229,7.045,9.229c3.895,0,7.045-4.119,7.045-9.229C291.787,310.499,288.637,306.355,284.742,306.355"/>
		<path fill="none" stroke="#000000" stroke-width="5.1568" stroke-linejoin="round" stroke-miterlimit="10" d="M285.743,308.351
			c16.783,0,30.38,17.71,30.38,39.537"/>
		<path fill="none" stroke="#000000" stroke-width="5.1568" stroke-linejoin="round" stroke-miterlimit="10" d="M328.231,308.351
			c-16.784,0-30.38,17.71-30.38,39.537"/>
		<path stroke="#000000" stroke-width="1.135" d="M329.006,306.103c-3.77,0-6.819,4.059-6.819,9.043
			c0,5.007,3.052,9.043,6.819,9.043c3.771,0,6.82-4.037,6.82-9.043C335.826,310.162,332.776,306.103,329.006,306.103"/>
	</g>
	<text transform="matrix(1 0 0 1 298.5977 304.5615)" font-family="sans-serif" font-size="28">B</text>
</g>
</svg>
