<?xml version="1.0" encoding="utf-8"?>
<!-- Generator: Adobe Illustrator 16.0.0, SVG Export Plug-In . SVG Version: 6.00 Build 0)  -->
<!DOCTYPE svg PUBLIC "-//W3C//DTD SVG 1.1//EN" "http://www.w3.org/Graphics/SVG/1.1/DTD/svg11.dtd">
<svg version="1.1" id="Version_1.0" xmlns="http://www.w3.org/2000/svg" xmlns:xlink="http://www.w3.org/1999/xlink" x="0px"
	 y="0px" width="400px" height="400px" viewBox="0 0 400 400" enable-background="new 0 0 400 400" xml:space="preserve">
<g id="main">
	<path fill="none" stroke="#000000" stroke-width="5" stroke-linecap="round" stroke-linejoin="round" stroke-miterlimit="10" d="
		M183.543,46.847c-86.479,0-156.582,67.732-156.582,151.288c0,83.576,70.103,151.309,156.582,151.309
		c86.48,0,156.581-67.731,156.581-151.309C340.124,114.579,270.023,46.847,183.543,46.847"/>
	<text transform="matrix(1 0 0 1 83.1226 248.2432)" font-family="sans-serif" font-size="19.2645">Grids</text>
	<text transform="matrix(1 0 0 1 83.1226 275.1777)" font-family="sans-serif" font-size="19.2645">EFF:</text>
	<text transform="matrix(1 0 0 1 83.1226 193.8125)" font-family="sans-serif" font-size="19.2645">MAX ALT:</text>
	<text transform="matrix(1 0 0 1 83.1226 168.1328)" font-family="sans-serif" font-size="19.2645">MIN ALT:</text>
	<text transform="matrix(1 0 0 1 83.1519 101.7793)" font-family="sans-serif" font-size="19.2645">ACA</text>
</g>
</svg>
