<?xml version="1.0" encoding="utf-8"?>
<!-- Generator: Adobe Illustrator 16.0.0, SVG Export Plug-In . SVG Version: 6.00 Build 0)  -->
<!DOCTYPE svg PUBLIC "-//W3C//DTD SVG 1.1//EN" "http://www.w3.org/Graphics/SVG/1.1/DTD/svg11.dtd">
<svg version="1.1" id="Version_1.0" xmlns="http://www.w3.org/2000/svg" xmlns:xlink="http://www.w3.org/1999/xlink" x="0px"
	 y="0px" width="400px" height="400px" viewBox="0 0 400 400" enable-background="new 0 0 400 400" xml:space="preserve">
<g id="main" transform="scale(0.8 0.8)">
	<g>
		<polygon stroke="#000000" stroke-width="2" points="50.308,292.983 67.308,256.985 33.307,256.985 		"/>
		<polygon stroke="#000000" stroke-width="2" points="162.878,292.985 179.88,256.985 145.879,256.985 		"/>
		<polygon stroke="#000000" stroke-width="2" points="106.593,292.983 123.593,256.985 89.594,256.985 		"/>
		<polygon stroke="#000000" stroke-width="2" points="219.166,292.983 236.165,256.985 202.166,256.985 		"/>
		<polygon stroke="#000000" stroke-width="2" points="275.45,292.983 292.45,256.985 258.451,256.985 		"/>
		<polygon stroke="#000000" stroke-width="2" points="331.737,292.983 348.737,256.985 314.738,256.985 		"/>
		<polygon stroke="#000000" stroke-width="2" points="388.022,292.983 405.023,256.985 371.023,256.985 		"/>
		<polygon stroke="#000000" stroke-width="2" points="444.308,292.983 461.309,256.985 427.308,256.985 		"/>
	</g>
	<line fill="none" stroke="#000000" stroke-width="2" x1="21.308" y1="255.789" x2="477.307" y2="255.789"/>
	<g>
		<circle stroke="#000000" stroke-width="2" cx="472.616" cy="277.88" r="12.5"/>
		<circle stroke="#000000" stroke-width="2" cx="414.731" cy="277.88" r="12.5"/>
		<circle stroke="#000000" stroke-width="2" cx="358.673" cy="277.88" r="12.5"/>
		<circle stroke="#000000" stroke-width="2" cx="302.615" cy="277.88" r="12.5"/>
		<circle stroke="#000000" stroke-width="2" cx="246.365" cy="277.88" r="12.5"/>
		<circle stroke="#000000" stroke-width="2" cx="190.115" cy="277.88" r="12.5"/>
		<circle stroke="#000000" stroke-width="2" cx="134.154" cy="277.88" r="12.5"/>
		<circle stroke="#000000" stroke-width="2" cx="76.923" cy="277.88" r="12.5"/>
	</g>
</g>
</svg>
